{"title":"Vikings.S04E07.HDTV.Xvid.Mp3.CSH","uid":14142266,"size":193348566,"categoryP":"video","categoryS":"tv_shows","magnet":"?xt=urn:btih:5e7a90472d74a14c641b7c7f62c15cc7a2b19242&amp;dn=Vikings.S04E07.HDTV.Xvid.Mp3.CSH&amp;tr=udp%3A%2F%2Ftracker.leechers-paradise.org%3A6969&amp;tr=udp%3A%2F%2Fzer0day.ch%3A1337&amp;tr=udp%3A%2F%2Fopen.demonii.com%3A1337&amp;tr=udp%3A%2F%2Ftracker.coppersurfer.tk%3A6969&amp;tr=udp%3A%2F%2Fexodus.desync.com%3A6969","seeders":0,"leechers":0,"uploader":"GM_CSH","files":1,"time":1459622821,"description":"Vikings Season 4 Episode 7 the latest installment of the banging tv series :)\r\n\r\nRipped at a lower bit rate for those with a limited monthly download allowance.\r\n\r\nsharing is caring\r\n\r\nppp\r\n\r\n\r\nVikings.S04E07.HDTV.Xvid.Mp3.CSH.aviVikings.S04E07.HDTV.Xvid.Mp3.CSH.avi\r\nFormat                      : AVI\r\nFormat/Info                 : Audio Video Interleave\r\nFile size                   : 184 MiB\r\nDuration                    : 43mn 31s\r\nOverall bit rate            : 592 Kbps\r\n\r\nVideo\r\nID                          : 0\r\nFormat                      : MPEG-4 Visual\r\nFormat profile              : Advanced   \r\nFormat settings, BVOP       : No\r\nFormat settings, QPel       : No\r\nFormat settings, GMC        : No warppoints\r\nFormat settings, Matrix     : Default (H.263)\r\nCodec ID                    : XVID\r\nCodec ID/Hint               : XviD\r\nDuration                    : 43mn 31s\r\nBit rate                    : 519 Kbps\r\nWidth                       : 720 pixels\r\nHeight                      : 400 pixels\r\nDisplay aspect ratio        : 16:9\r\nFrame rate                  : 23.976 (24000/1001) fps\r\nColor space                 : YUV\r\nChroma subsampling          : 4:2:0\r\nBit depth                   : 8 bits\r\nScan type                   : Progressive\r\nCompression mode            : Lossy\r\nBits/(Pixel*Frame)          : 0.075\r\nStream size                 : 162 MiB (88%)\r\nWriting library             : XviD 62\r\n\r\nAudio\r\nID                          : 1\r\nFormat                      : MPEG Audio\r\nFormat version              : Version 1\r\nFormat profile              : Layer 3\r\nCodec ID                    : 55\r\nCodec ID/Hint               : MP3\r\nDuration                    : 43mn 31s\r\nBit rate mode               : Constant\r\nBit rate                    : 64.0 Kbps\r\nChannel(s)                  : 2 channels\r\nSampling rate               : 32.0 KHz\r\nCompression mode            : Lossy\r\nStream size                 : 19.9 MiB (11%)\r\nAlignment                   : Split accross interleaves\r\nInterleave, duration        : 42 ms (1.00 video frame)","torrent":{"xt":"urn:btih:5e7a90472d74a14c641b7c7f62c15cc7a2b19242","amp;dn":"Vikings.S04E07.HDTV.Xvid.Mp3.CSH","amp;tr":["udp%3A%2F%2Ftracker.leechers-paradise.org%3A6969","udp%3A%2F%2Fzer0day.ch%3A1337","udp%3A%2F%2Fopen.demonii.com%3A1337","udp%3A%2F%2Ftracker.coppersurfer.tk%3A6969","udp%3A%2F%2Fexodus.desync.com%3A6969"],"infoHash":"5e7a90472d74a14c641b7c7f62c15cc7a2b19242","infoHashBuffer":{"type":"Buffer","data":[94,122,144,71,45,116,161,76,100,27,124,127,98,193,92,199,162,177,146,66]},"announce":[],"urlList":[]}}